<?xml version="1.0" encoding="UTF-8"?>
<svg id="_レイヤー_2" data-name="レイヤー 2" xmlns="http://www.w3.org/2000/svg" viewBox="0 0 337.94 66.06">
  <defs>
    <style>
      .cls-1 {
        fill: #4560aa;
      }

      .cls-1, .cls-2 {
        stroke-width: 0px;
      }

      .cls-2 {
        fill: #19214a;
      }
    </style>
  </defs>
  <g id="MediaLab_007">
    <g>
      <polygon class="cls-2" points="50.82 0 76.15 44.07 50.82 44.26 25.44 0 50.82 0"/>
      <polygon class="cls-2" points="76.27 .1 101.71 44.17 114.49 22.13 101.71 .1 76.27 .1"/>
      <g>
        <polygon class="cls-1" points="76.15 44.26 50.82 44.26 76.27 .1 101.71 .1 76.15 44.26"/>
        <polygon class="cls-1" points="25.38 0 0 44.07 12.68 66.06 50.82 0 25.38 0"/>
      </g>
      <g>
        <path class="cls-2" d="M206.7,47.47v2.36h3.57v8.13h-.81v-.72h-8.65v.72h-.81v-8.13h3.13s.03-1.44.03-2.36h-3.96v-.77h11.78v.77h-4.28ZM209.46,54.13h-2.54c-.93,0-1.01-.34-1.01-1.21v-2.33h-2.05c-.12,2.13-.77,3.69-2.46,5.03l-.51-.69c1.62-1.3,2.08-2.49,2.2-4.33h-2.28v5.87h8.65v-2.33ZM205.92,47.47h-1.99c0,.88-.03,2.36-.03,2.36h2.02v-2.36ZM209.46,50.6h-2.76v2.34c0,.35.03.43.45.43h2.32v-2.78Z"/>
        <path class="cls-2" d="M223.67,57.95v-.96h-7.03v.96h-.84v-11.27h8.71v11.27h-.84ZM223.67,47.51h-7.03v3.89h7.03v-3.89ZM223.67,52.18h-7.03v3.99h7.03v-3.99Z"/>
        <path class="cls-2" d="M240.58,55.52c-2.26-1.71-3.59-3.64-4.97-6.44v5.3h2.92v.76h-2.92v2.81h-.81v-2.81h-2.92v-.76h2.92v-5.31c-1.05,2.95-2.57,4.94-5.03,6.77l-.46-.81c2.29-1.53,3.86-3.52,4.78-6.01h-4.48v-.76h5.19v-2.08h.81v2.08h5.16v.76h-4.48c1.19,2.17,2.53,4.21,4.79,5.7l-.5.81Z"/>
        <path class="cls-2" d="M247.76,50.88v1.47h2.42v.76h-2.11c.69,1.4,1.85,2.38,1.85,2.38l-.47.75s-.9-.84-1.69-2.68v4.4h-.76v-4.35c-.35,1.22-1.39,2.62-2.19,3.39l-.48-.76c.65-.54,1.96-2.04,2.34-3.13h-2.02v-.76h2.34v-1.47h-2.53v-.76h1.48c-.21-.89-.47-1.74-.58-2.02h-.69v-.76h2.32v-1.18h.76v1.18h2.28v.76h-.64c-.07.31-.28,1.23-.6,2.02h1.49v.76h-2.53ZM246.14,48.11c.14.45.33,1.13.55,2.02h1.39c.31-.75.48-1.57.56-2.02h-2.5ZM254.59,50.95v7h-.76v-7h-1.9c0,2.67-.21,4.9-1.45,6.68l-.59-.64c1.19-1.57,1.28-3.74,1.28-6.47v-3.44s2.32.01,4.19-.76l.42.72c-1.65.65-3.85.75-3.85.75v2.41h4.1v.76h-1.44Z"/>
        <path class="cls-2" d="M260.82,50.5v7.45h-.79v-11.38h4.77v3.93h-3.98ZM264.01,47.28h-3.19v.99h3.19v-.99ZM264.01,48.85h-3.19v1h3.19v-1ZM267.74,51.97v5.62h-.77v-1.19c-1.35.29-2.64.43-5.11.6l-.13-.7c.45-.01,1.19-.08,1.19-.08v-4.25h-1.26v-.64h7.21v.64h-1.14ZM266.97,51.97h-3.27v.95h3.27v-.95ZM266.97,53.48h-3.27v.99h3.27v-.99ZM266.97,55.02h-3.27v1.14c.96-.07,1.86-.17,3.27-.37v-.77ZM268.44,57.93l-.29-.75c1.49,0,1.6-.05,1.6-1.07v-5.6h-3.98v-3.93h4.77v9.1c0,2.16-.17,2.13-2.09,2.25ZM269.75,47.28h-3.19v.99h3.19v-.99ZM269.75,48.85h-3.19v1h3.19v-1Z"/>
      </g>
      <g>
        <path class="cls-2" d="M136.72,39.28l4.23-31.63h.48l12,25.96,11.88-25.96h.47l4.25,31.63h-2.89l-2.92-22.62-10.44,22.62h-.75l-10.56-22.79-2.9,22.79h-2.85Z"/>
        <path class="cls-2" d="M192.92,31.52l2.37,1.33c-.78,1.63-1.67,2.95-2.69,3.96-1.02,1-2.16,1.77-3.43,2.29-1.27.52-2.71.79-4.32.79-3.56,0-6.35-1.25-8.35-3.75-2.01-2.5-3.01-5.33-3.01-8.48,0-2.97.85-5.61,2.55-7.93,2.16-2.95,5.04-4.43,8.66-4.43s6.69,1.51,8.92,4.54c1.58,2.14,2.38,4.8,2.41,8h-19.64c.05,2.72.86,4.94,2.43,6.68,1.57,1.74,3.5,2.61,5.81,2.61,1.11,0,2.19-.21,3.24-.62,1.05-.41,1.94-.96,2.68-1.65.74-.69,1.53-1.79,2.39-3.32ZM192.92,25.21c-.38-1.61-.92-2.89-1.64-3.85-.72-.96-1.66-1.73-2.84-2.32-1.18-.59-2.42-.88-3.72-.88-2.14,0-3.98.74-5.52,2.21-1.12,1.08-1.98,2.69-2.55,4.84h16.27Z"/>
        <path class="cls-2" d="M221.39,6.85v32.43h-2.77v-4.02c-1.18,1.53-2.5,2.69-3.96,3.46-1.46.78-3.07,1.16-4.8,1.16-3.09,0-5.73-1.2-7.92-3.6-2.19-2.4-3.28-5.32-3.28-8.76s1.1-6.25,3.31-8.64c2.21-2.39,4.86-3.59,7.96-3.59,1.79,0,3.41.41,4.87,1.23,1.45.82,2.73,2.04,3.82,3.68V6.85h2.77ZM210.16,18.18c-1.56,0-3.01.41-4.33,1.24-1.32.82-2.38,1.98-3.16,3.47-.78,1.49-1.17,3.06-1.17,4.72s.39,3.22,1.18,4.73c.79,1.5,1.85,2.68,3.18,3.51,1.33.84,2.76,1.26,4.28,1.26s2.99-.42,4.37-1.25c1.38-.83,2.43-1.96,3.18-3.37.74-1.42,1.11-3.01,1.11-4.79,0-2.71-.83-4.97-2.5-6.79-1.66-1.82-3.71-2.73-6.14-2.73Z"/>
        <path class="cls-2" d="M229.54,6.25c.64,0,1.19.24,1.64.73s.68,1.08.68,1.76-.23,1.25-.68,1.74-1,.73-1.64.73-1.16-.24-1.62-.73c-.45-.49-.68-1.07-.68-1.74s.23-1.28.68-1.76c.45-.49.99-.73,1.62-.73ZM228.15,15.88h2.81v23.4h-2.81V15.88Z"/>
        <path class="cls-2" d="M256.9,15.88v23.4h-2.77v-4.02c-1.18,1.53-2.5,2.69-3.96,3.46-1.46.78-3.07,1.16-4.81,1.16-3.09,0-5.73-1.2-7.91-3.6-2.19-2.4-3.28-5.32-3.28-8.76s1.1-6.25,3.31-8.64c2.21-2.39,4.86-3.59,7.96-3.59,1.79,0,3.41.41,4.87,1.23,1.45.82,2.72,2.04,3.82,3.68v-4.3h2.77ZM245.68,18.18c-1.56,0-3.01.41-4.33,1.24s-2.38,1.98-3.16,3.47c-.78,1.49-1.17,3.06-1.17,4.72s.39,3.22,1.18,4.73c.79,1.5,1.85,2.68,3.18,3.51,1.33.84,2.76,1.26,4.28,1.26s2.99-.42,4.37-1.25c1.38-.83,2.44-1.96,3.18-3.37.74-1.42,1.11-3.01,1.11-4.79,0-2.71-.83-4.97-2.5-6.79-1.66-1.82-3.71-2.73-6.14-2.73Z"/>
        <path class="cls-2" d="M272.26,7.65h2.95v28.58h11.36v3.05h-14.3V7.65Z"/>
        <path class="cls-2" d="M310.53,15.88v23.4h-2.77v-4.02c-1.18,1.53-2.5,2.69-3.96,3.46-1.46.78-3.07,1.16-4.81,1.16-3.09,0-5.73-1.2-7.91-3.6-2.19-2.4-3.28-5.32-3.28-8.76s1.1-6.25,3.31-8.64c2.21-2.39,4.86-3.59,7.96-3.59,1.79,0,3.41.41,4.87,1.23,1.45.82,2.72,2.04,3.82,3.68v-4.3h2.77ZM299.3,18.18c-1.56,0-3.01.41-4.33,1.24s-2.38,1.98-3.16,3.47c-.78,1.49-1.17,3.06-1.17,4.72s.39,3.22,1.18,4.73c.79,1.5,1.85,2.68,3.18,3.51,1.33.84,2.76,1.26,4.28,1.26s2.99-.42,4.37-1.25c1.38-.83,2.44-1.96,3.18-3.37.74-1.42,1.11-3.01,1.11-4.79,0-2.71-.83-4.97-2.5-6.79-1.66-1.82-3.71-2.73-6.14-2.73Z"/>
        <path class="cls-2" d="M315.21,39.28V6.85h2.81v13.05c1.18-1.55,2.49-2.71,3.95-3.47,1.46-.77,3.05-1.15,4.79-1.15,3.09,0,5.72,1.2,7.91,3.6,2.19,2.4,3.28,5.32,3.28,8.74s-1.1,6.27-3.31,8.67c-2.21,2.39-4.86,3.59-7.96,3.59-1.78,0-3.39-.41-4.83-1.23-1.44-.82-2.72-2.04-3.83-3.68v4.3h-2.81ZM326.45,36.98c1.56,0,3-.41,4.32-1.24,1.32-.82,2.37-1.98,3.15-3.47.78-1.49,1.17-3.07,1.17-4.73s-.39-3.25-1.18-4.75-1.85-2.68-3.17-3.52c-1.33-.84-2.75-1.26-4.25-1.26s-2.99.42-4.38,1.26c-1.38.84-2.44,1.97-3.18,3.39-.74,1.42-1.11,3.02-1.11,4.79,0,2.71.83,4.97,2.49,6.79,1.66,1.82,3.71,2.73,6.13,2.73Z"/>
      </g>
    </g>
  </g>
</svg>